<svg xmlns="http://www.w3.org/2000/svg" width="200" height="200" shape-rendering="geometricPrecision" text-rendering="geometricPrecision" image-rendering="optimizeQuality" fill-rule="evenodd" clip-rule="evenodd"><path d="M131.62 11v178h26.5V13.96zm-259.26 8.49V3h8.76l.01-.1h.85l.72-4.73h-10.34v-7.64l-.86.09-6.51.79v6.76h-5.97v.1h-.86V3h6.83v16.65c0 12.43 14.89 11.28 20.7 7.57l-2.35-4.3c-.23.13-.47.25-.71.36l-.15-.26c-3.82 2.11-10.12 2.47-10.12-3.53zm31.38-24.93c-9.96 0-14.74 6.64-14.74 16.26 0 18.21 16.19 17.96 22.26 14 9.61-6.27 9.45-30.26-7.52-30.26zm-5.29 24.56c-2.24-3.45-3.79-18.04 3.92-19.39 6.15-.37 7.52 5.15 7.52 11.03 0 14.19-9.05 12.03-11.44 8.36zM130.6 120.25L80.69 63.71H49.82l50.5 55.83-55.82 69.07h32.4zM-157 44.35v55.88c0 2.28-.69 3.89-2.09 4.85-1.39.96-3.19 1.43-5.41 1.43-1.44 0-2.8-.15-4.08-.47-1.28-.31-2.53-.7-3.75-1.17l-2.67 7.32c1.47.75 3.27 1.4 5.41 1.97 2.14.56 4.59.84 7.34.84 4.97 0 8.85-1.41 11.6-4.2 2.76-2.79 4.15-6.63 4.15-11.51V52.08h14.96v-7.73H-157z" fill="#e32938"/></svg>