<svg xmlns="http://www.w3.org/2000/svg" width="200" height="200" shape-rendering="geometricPrecision" text-rendering="geometricPrecision" image-rendering="optimizeQuality" fill-rule="evenodd" clip-rule="evenodd"><path fill="#FC7CA6" d="M-226.37 243.49c17.72 0 32.09 14.37 32.09 32.09 0 17.72-14.37 32.09-32.09 32.09-17.72 0-32.09-14.37-32.09-32.09 0-17.72 14.37-32.09 32.09-32.09z"/><circle fill="#FC7CA6" cx="-150.87" cy="275.49" r="32.09"/><path fill="#22F0B9" d="M-345.94 171.86c179.61 0 207.93-47.46 308.73 71.05v6.95c-22.06 29.84-21.82 30.45-36.45 50.22h-31.73c-.29-3.21-1.08-6.3-2.27-9.17l.73-.92h-1.13c-4.95-10.86-15.92-18.46-28.59-18.46h-105.51c-12.66 0-23.63 7.6-28.58 18.46h-74.05c-8.06 0-15.82-6.62-15.82-14.69v-88.77c0-8.07 6.6-14.67 14.67-14.67z"/><path fill="#fff" d="M-261.88 244.59c0 1.94-.29 3.35-.89 4.24-.59.91-1.54 1.56-2.86 2l2.35 7.13c2.44-.29 4.53-.96 6.28-2.02s3.08-2.67 3.99-4.83c1.81 2.28 4.11 4 6.89 5.16 2.78 1.15 5.75 1.73 8.91 1.73 5 0 8.97-1.42 11.87-4.25 2.92-2.81 4.39-6.53 4.39-11.12 0-5.23-2.03-9.24-6.09-12.05-4.06-2.82-9.88-4.22-17.44-4.22h-7.08v-3.24c0-3.19.95-5.48 2.87-6.89 1.94-1.41 4.65-2.11 8.15-2.11 1.62 0 3.59.2 5.9.62 2.32.43 4.74 1.08 7.27 1.96l2.58-7.41c-3.1-1.16-6.13-2-9.1-2.56-2.97-.54-5.72-.81-8.25-.81-6.62 0-11.58 1.46-14.84 4.4-3.27 2.94-4.9 7-4.9 12.19v22.08zm21.48 5.68c-2.13 0-4.21-.57-6.24-1.69-2.03-1.13-3.67-2.7-4.92-4.74v-10.92h5.81c4.94 0 8.47.81 10.6 2.45 2.12 1.64 3.19 3.91 3.19 6.79 0 2.62-.72 4.62-2.15 6.01-1.42 1.41-3.51 2.1-6.29 2.1zm45.26-67.28c-2.06 0-3.72.62-5 1.87-1.27 1.25-1.89 2.82-1.89 4.69 0 1.88.62 3.46 1.89 4.74 1.28 1.28 2.94 1.92 5 1.92 2 0 3.64-.64 4.92-1.92 1.28-1.28 1.92-2.86 1.92-4.74 0-1.87-.64-3.44-1.92-4.69-1.28-1.25-2.92-1.87-4.92-1.87zm-7.32 24.24v41.82h-13.45v7.69h38.77v-7.69h-14.81v-34.13h14.34v-7.69zm53.94-19.88v55.88c0 2.29-.69 3.9-2.09 4.85-1.4.97-3.19 1.44-5.41 1.44-1.44 0-2.8-.16-4.08-.47-1.28-.31-2.53-.71-3.75-1.17l-2.67 7.31c1.47.75 3.26 1.41 5.4 1.97 2.14.56 4.6.84 7.35.84 4.97 0 8.84-1.4 11.59-4.2 2.77-2.78 4.16-6.63 4.16-11.5v-47.22h14.96v-7.73h-25.46zm-135.28 23.41c0 4.73-.97 8.84-2.87 12.34-1.93 3.5-4.55 6.42-7.86 8.74-3.32 2.32-7.03 4.1-11.11 5.35l27.2 41.81h-18.79l-24.13-39.51h-10.51V279H-348v-95.99h26.78c12.33 0 21.65 2.32 27.96 6.91 6.31 4.63 9.46 11.57 9.46 20.84zm-16.9 0c0-5.56-1.6-9.57-4.83-12.08-3.22-2.46-8.16-3.71-14.79-3.71h-11.55v32.7h11.9c6.17 0 10.92-1.33 14.26-3.95s5.01-6.93 5.01-12.96z"/><path fill="#1DD7F0" d="M131.62 11v178h26.5V13.96z"/><path fill="#FC7CA6" d="M-127.64 19.49V3h8.76l.01-.1h.85l.72-4.73h-10.34v-7.64l-.86.09-6.51.79v6.76h-5.97v.1h-.86V3h6.83v16.65c0 12.43 14.89 11.28 20.7 7.57l-2.35-4.3c-.23.13-.47.25-.71.36l-.15-.26c-3.82 2.11-10.12 2.47-10.12-3.53zm31.38-24.93c-9.96 0-14.74 6.64-14.74 16.26 0 18.21 16.19 17.96 22.26 14 9.61-6.27 9.45-30.26-7.52-30.26zm-5.29 24.56c-2.24-3.45-3.79-18.04 3.92-19.39 6.15-.37 7.52 5.15 7.52 11.03 0 14.19-9.05 12.03-11.44 8.36z"/><path fill="#1DD7F0" d="M130.6 120.25L80.69 63.71H49.82l50.5 55.83-55.82 69.07h32.4z"/><path fill="#22F0B9" d="M-157 44.35v55.88c0 2.28-.69 3.89-2.09 4.85-1.39.96-3.19 1.43-5.41 1.43-1.44 0-2.8-.15-4.08-.47-1.28-.31-2.53-.7-3.75-1.17l-2.67 7.32c1.47.75 3.27 1.4 5.41 1.97 2.14.56 4.59.84 7.34.84 4.97 0 8.85-1.41 11.6-4.2 2.76-2.79 4.15-6.63 4.15-11.51V52.08h14.96v-7.73H-157z"/></svg>