<svg xmlns="http://www.w3.org/2000/svg" width="300" height="200" shape-rendering="geometricPrecision" text-rendering="geometricPrecision" image-rendering="optimizeQuality" fill-rule="evenodd" clip-rule="evenodd"><g fill="#F2CB3D"><path fill-rule="nonzero" d="M48.16 144.33a2.482 2.482 0 01-2.76 2.2 2.486 2.486 0 01-2.2-2.77l4.96.57zm95.14-96.57l.36 4.99-4.64.44-4.57.64-4.52.84-4.44 1.03-4.36 1.22-4.29 1.41-4.2 1.58-4.11 1.75-4.02 1.93-3.92 2.09-3.82 2.25-3.72 2.41-3.6 2.56-3.49 2.71-3.36 2.85-3.24 2.99-3.12 3.12-2.98 3.25-2.84 3.37-2.69 3.5-2.55 3.61-2.4 3.72-2.24 3.83-2.08 3.92-1.91 4.03-1.75 4.12-1.57 4.21-1.39 4.29-1.2 4.37-1.02 4.45-.83 4.51-.63 4.58-4.96-.57.66-4.8.86-4.73 1.07-4.66 1.27-4.59 1.45-4.5 1.65-4.41 1.83-4.32 2-4.22 2.18-4.12 2.35-4.01 2.51-3.9 2.68-3.78 2.82-3.66 2.98-3.54 3.12-3.41 3.26-3.27 3.4-3.13 3.52-2.99 3.66-2.83 3.77-2.69 3.9-2.52 4-2.36 4.11-2.19 4.22-2.02 4.31-1.84 4.4-1.66 4.5-1.47 4.58-1.28 4.65-1.08 4.73-.88 4.8-.68 4.86-.46zm0 0c1.38-.1 2.58.94 2.68 2.31.1 1.38-.94 2.58-2.32 2.68l-.36-4.99zm15.63 4.99c-1.37-.1-2.41-1.3-2.31-2.68.1-1.37 1.3-2.41 2.68-2.31l-.37 4.99zm54.21 13.99l-2.84 4.11-1.4-.94-1.41-.93-1.43-.91-1.44-.88-1.46-.85-1.47-.84-1.49-.81-1.5-.79-1.51-.76-1.53-.74-1.55-.72-1.56-.69-1.57-.66-1.58-.64-1.6-.62-1.61-.59-1.62-.56-1.63-.54-1.65-.51-1.66-.48-1.66-.46-1.68-.43-1.69-.4-1.71-.38-1.71-.35-1.72-.32-1.73-.28-1.74-.27-1.75-.23-1.76-.2-1.77-.18-1.78-.14.37-4.99 1.86.15 1.85.19 1.85.21 1.83.24 1.83.28 1.81.3 1.81.34 1.79.36 1.78.39 1.78.42 1.76.46 1.74.47 1.74.51 1.73.54 1.71.56 1.7.59 1.69.62 1.67.65 1.67.67 1.64.7 1.64.72 1.61.75 1.61.77 1.59.81 1.57.82 1.56.85 1.55.88 1.52.9 1.51.92 1.5.95 1.48.97 1.46.99zm0 0c1.13.79 1.42 2.35.63 3.48a2.49 2.49 0 01-3.47.63l2.84-4.11zM111.2 159.45a2.5 2.5 0 010 5v-5zm-72.65 0h72.65v5H38.55v-5zM27.09 153h5l.01.33.03.33.04.32.05.31.08.31.08.31.11.3.11.29.13.28.15.28.15.27.17.27.18.25.2.24.2.24.22.22.22.22.24.2.25.2.25.18.26.17.27.15.28.14.28.13.3.12.3.1.3.09.31.07.32.06.31.04.33.02.33.01v5l-.59-.01-.58-.05-.57-.07-.56-.1-.55-.13-.55-.16-.53-.18-.52-.2-.51-.23-.49-.26-.48-.27-.46-.3-.45-.32-.43-.34-.42-.36-.4-.38-.37-.39-.37-.42-.34-.43-.32-.45-.29-.46-.28-.48-.26-.5-.23-.5-.2-.52-.19-.54-.15-.54-.13-.55-.1-.57-.08-.57-.04-.58-.02-.59zm0 0a2.5 2.5 0 015 0h-5zm11.46-11.45v5l-.34.01-.32.02-.32.04-.32.06-.31.07-.3.09-.3.1-.29.12-.29.13-.28.14-.27.15-.26.17-.25.19-.25.19-.23.2-.23.22-.21.22-.21.24-.19.24-.18.25-.17.27-.16.27-.14.27-.13.29-.11.29-.11.3-.08.3-.07.32-.06.31-.04.32-.03.33-.01.33h-5l.02-.58.04-.59.08-.57.1-.56.13-.55.15-.55.18-.53.21-.52.23-.51.25-.49.28-.48.3-.47.32-.45.34-.43.36-.41.37-.4.4-.38.42-.36.43-.34.45-.32.46-.29.48-.28.5-.26.5-.22.52-.21.54-.18.54-.16.55-.13.57-.1.57-.07.58-.05.59-.01zm0 0a2.5 2.5 0 010 5v-5zm66.43 5H38.55v-5h66.43v5zm0-5a2.5 2.5 0 010 5v-5z"/><path d="M151.3 32.76c5.79 0 10.49 4.7 10.49 10.49 0 5.8-4.7 10.5-10.49 10.5-5.8 0-10.49-4.7-10.49-10.5 0-5.79 4.69-10.49 10.49-10.49zm3.88 6.61a5.471 5.471 0 00-3.88-1.61c-1.53 0-2.9.61-3.88 1.59-.01.01-.02.01-.02.02-.99.98-1.59 2.36-1.59 3.88s.61 2.9 1.61 3.89l-.01.01s0 .01.01.01a5.46 5.46 0 003.88 1.59c1.52 0 2.89-.62 3.88-1.61 1-.99 1.61-2.37 1.61-3.89 0-1.43-.53-2.72-1.4-3.69-.07-.06-.14-.12-.21-.19z"/></g><path fill-rule="nonzero" d="M142.16 132.05h1.1v8.99h-1.73c-.03-2.37-.7-4.08-2.02-5.14-1.31-1.06-3.31-1.59-6-1.59h-1.78c-.16 1.72-.24 3.25-.24 4.6 0 2.68.52 4.67 1.56 5.94 1.04 1.27 2.72 1.91 5.03 1.91h2.3v1.63l-8.65.19v13.55h2.49c5.26 0 8.27-2.51 9.04-7.54h1.68l-1.92 9.66h-1.15c-.02-.67-.31-1.01-.89-1.01h-17.13v-1.11c1.4-.01 2.35-.28 2.83-.8s.73-1.5.73-2.94v-20.34c0-1.53-.28-2.54-.81-3-.54-.46-1.45-.7-2.75-.74v-1.1h16.72c1.03 0 1.55-.39 1.59-1.16zm4.86 9.71h8.62v1.11c-.63.01-.95.23-.95.65 0 .21.06.4.19.57l4.01 5.77c.75-.92 1.43-1.81 2.05-2.66.62-.87.93-1.73.93-2.6 0-1.13-.77-1.7-2.33-1.73v-1.11h9.52v1.11c-1.26.06-2.53.63-3.81 1.71-1.28 1.07-3.18 3.16-5.68 6.25l4.74 6.83c.78 1.12 1.64 2.13 2.57 3.04.93.91 1.98 1.39 3.13 1.43v1.11h-8.4v-1.11c.52 0 .78-.16.78-.49 0-.29-.14-.6-.41-.91l-4.81-6.92c-1.27 1.57-2.17 2.81-2.69 3.71-.53.91-.79 1.77-.79 2.59 0 1.32.94 1.99 2.82 2.02v1.11h-10.45v-1.11c1.96-.17 4.39-2.01 7.28-5.51l3.14-3.82-3.9-5.6c-.93-1.33-1.85-2.38-2.72-3.14-.87-.77-1.83-1.16-2.84-1.19v-1.11z"/><path fill="#F2CB3D" fill-rule="nonzero" d="M178.34 162.8v5.58c0 1.39.28 2.36.85 2.91.56.54 1.49.82 2.8.84v1.1h-10.72v-1.1c1.32-.02 2.23-.31 2.77-.88.53-.57.79-1.52.79-2.87v-22.44c0-1.21-.46-1.81-1.38-1.81-.33 0-1.05.2-2.18.61v-1.11l6.02-2.45h1.05v7.64c2.22-3.06 4.03-5.1 5.43-6.13 1.39-1.03 2.81-1.55 4.23-1.55 1.87 0 3.49.79 4.84 2.37 1.35 1.58 2.03 3.69 2.03 6.31 0 3.68-1.23 6.96-3.67 9.81-2.45 2.86-5.2 4.28-8.24 4.28-.71 0-1.44-.09-2.22-.28-.78-.19-1.58-.46-2.4-.83zm.01-2.99c1.09.89 2.13 1.55 3.09 2 .97.44 1.87.66 2.71.66 1.97 0 3.65-.98 5.05-2.96 1.41-1.98 2.11-4.49 2.11-7.54 0-2.38-.46-4.32-1.37-5.83-.91-1.51-2.14-2.27-3.68-2.27-2.03 0-3.89 1.32-5.6 3.94-1.71 2.64-2.56 5.65-2.56 9.06 0 .73.09 1.71.25 2.94zM205.5 131c-.64.33-.96.89-.96 1.71v25.72c0 1.4.28 2.35.85 2.87.57.53 1.47.8 2.71.83v1.11h-10.77v-1.11c1.29-.03 2.21-.31 2.77-.85s.84-1.49.84-2.85V136.1c0-1.44-.6-2.16-1.78-2.16-.5 0-1.11.12-1.83.37v-1.1l8.17-3.17v.96zm16.17 10.18c2.96 0 5.33.93 7.11 2.78 1.78 1.84 2.67 4.31 2.67 7.38 0 3.65-1.24 6.66-3.72 9.02-2.47 2.37-5.19 3.55-8.17 3.55-2.98 0-5.33-.94-7.05-2.82-1.72-1.88-2.59-4.32-2.59-7.33 0-3.6 1.23-6.59 3.68-8.98 2.45-2.39 5.14-3.6 8.07-3.6zm-1.98 1.83c-2.14 0-3.77.76-4.9 2.27-1.13 1.53-1.7 3.42-1.7 5.71 0 2.81.89 5.32 2.68 7.54 1.78 2.21 3.85 3.32 6.22 3.32 1.76 0 3.25-.73 4.46-2.18 1.22-1.46 1.83-3.36 1.83-5.71 0-2.17-.49-4.12-1.46-5.85-.98-1.73-2.09-3.01-3.35-3.84-1.25-.84-2.51-1.26-3.78-1.26zm14 .62l6.18-2.49h1.03v7.59c1.61-2.74 3.04-4.69 4.31-5.83 1.26-1.15 2.55-1.72 3.88-1.72.52 0 1.13.12 1.85.36v7.19h-1.68c-.02-2.82-.83-4.23-2.45-4.23-1.59 0-3.03 1.31-4.28 3.95-1.25 2.63-1.87 5.62-1.87 8.95 0 1.96.36 3.25 1.09 3.85.72.59 2.1.88 4.15.88v1.11h-12.21v-1.11c1.28-.03 2.21-.31 2.77-.84s.84-1.48.84-2.86v-12.1c0-1.41-.51-2.11-1.53-2.11-.42 0-1.11.18-2.08.52v-1.11zm38.45 13.7c-3.48 4.39-6.88 6.58-10.19 6.58-2.33 0-4.38-1.01-6.16-3.03-1.79-2.02-2.68-4.42-2.68-7.19 0-3.21 1.06-6.09 3.17-8.65 2.12-2.57 4.62-3.86 7.48-3.86 2.32 0 4.14.81 5.51 2.44 1.36 1.62 2.07 3.59 2.15 5.93h-15.09c-.03.6-.05 1.05-.05 1.34 0 2.78.74 5.1 2.21 6.96 1.46 1.87 3.27 2.79 5.43 2.79 2.69 0 5.43-1.61 8.22-4.85v1.54zm-4.56-8.89c-.19-1.83-.77-3.24-1.76-4.25-.98-1.01-2.14-1.52-3.48-1.52-1.4 0-2.66.55-3.77 1.65-1.1 1.08-1.78 2.46-2.03 4.12h11.04zm6.75-4.81l6.17-2.49h1.03v7.59c1.61-2.74 3.05-4.69 4.31-5.83 1.27-1.15 2.56-1.72 3.89-1.72.51 0 1.13.12 1.85.36v7.19h-1.69c-.01-2.82-.83-4.23-2.45-4.23-1.59 0-3.02 1.31-4.27 3.95-1.25 2.63-1.88 5.62-1.88 8.95 0 1.96.36 3.25 1.09 3.85.72.59 2.11.88 4.15.88v1.11h-12.2v-1.11c1.28-.03 2.2-.31 2.76-.84.56-.53.84-1.48.84-2.86v-12.1c0-1.41-.5-2.11-1.52-2.11-.43 0-1.12.18-2.08.52v-1.11z"/><path d="M142.16 132.05h1.1v8.99h-1.73c-.03-2.37-.7-4.08-2.02-5.14-1.31-1.06-3.31-1.59-6-1.59h-1.78c-.16 1.72-.24 3.25-.24 4.6 0 2.68.52 4.67 1.56 5.94 1.04 1.27 2.72 1.91 5.03 1.91h2.3v1.63l-8.65.19v13.55h2.49c5.26 0 8.27-2.51 9.04-7.54h1.68l-1.92 9.66h-1.15c-.02-.67-.31-1.01-.89-1.01h-17.13v-1.11c1.4-.01 2.35-.28 2.83-.8s.73-1.5.73-2.94v-20.34c0-1.53-.28-2.54-.81-3-.54-.46-1.45-.7-2.75-.74v-1.1h16.72c1.03 0 1.55-.39 1.59-1.16zm1.1.01h-1.1c-.02.38-.16.67-.42.86-.27.19-.66.29-1.17.29h-16.72v1.1c.65.02 1.2.09 1.65.21.47.12.83.3 1.1.53.26.23.47.6.6 1.1.14.5.21 1.14.21 1.9v20.34c0 .72-.06 1.32-.19 1.81-.11.5-.3.88-.54 1.13-.24.26-.6.46-1.07.59-.47.14-1.06.21-1.76.21v1.11h17.13c.29 0 .51.08.65.25.15.17.23.42.24.76h1.15l1.92-9.66h-1.68c-.77 5.03-3.78 7.54-9.04 7.54h-2.49v-13.55l8.65-.19v-1.63h-2.3c-1.16 0-2.16-.16-2.99-.48-.84-.31-1.52-.79-2.04-1.43-.52-.63-.91-1.45-1.17-2.44-.26-.99-.39-2.16-.39-3.5 0-.68.02-1.4.06-2.16.04-.77.1-1.58.18-2.44h1.78c1.34 0 2.52.13 3.52.4 1 .26 1.83.66 2.48 1.19.66.53 1.16 1.22 1.49 2.08.34.85.52 1.88.53 3.06h1.73v-8.98zm3.76 9.7h8.62v1.11c-.63.01-.95.23-.95.65 0 .21.06.4.19.57l4.01 5.77c.75-.92 1.43-1.81 2.05-2.66.62-.87.93-1.73.93-2.6 0-1.13-.77-1.7-2.33-1.73v-1.11h9.52v1.11c-1.26.06-2.53.63-3.81 1.71-1.28 1.07-3.18 3.16-5.68 6.25l4.74 6.83c.78 1.12 1.64 2.13 2.57 3.04.93.91 1.98 1.39 3.13 1.43v1.11h-8.4v-1.11c.52 0 .78-.16.78-.49 0-.29-.14-.6-.41-.91l-4.81-6.92c-1.27 1.57-2.17 2.81-2.69 3.71-.53.91-.79 1.77-.79 2.59 0 1.32.94 1.99 2.82 2.02v1.11h-10.45v-1.11c1.96-.17 4.39-2.01 7.28-5.51l3.14-3.82-3.9-5.6c-.93-1.33-1.85-2.38-2.72-3.14-.87-.77-1.83-1.16-2.84-1.19v-1.11zm8.61 0h-8.61v1.1c.51.02 1.01.13 1.48.33s.93.49 1.36.87c.44.38.89.84 1.34 1.36.46.52.92 1.12 1.38 1.78l3.9 5.6v.01l-3.14 3.81c-1.45 1.75-2.78 3.09-3.99 4-1.21.92-2.31 1.43-3.28 1.51v1.11h10.44v-1.11c-.94-.01-1.65-.19-2.12-.53-.47-.33-.7-.83-.7-1.49 0-.41.06-.83.2-1.26.13-.43.33-.87.59-1.33.26-.46.62-1 1.07-1.62.45-.61.99-1.31 1.62-2.1l4.82 6.93c.13.16.23.31.3.46.06.15.1.3.1.45 0 .16-.07.29-.2.37-.13.08-.32.12-.58.12v1.11h8.4v-1.11c-.58-.02-1.13-.15-1.65-.39a5.32 5.32 0 01-1.48-1.04c-.47-.45-.91-.94-1.34-1.44-.43-.51-.84-1.04-1.23-1.6l-4.74-6.82v-.01c1.25-1.54 2.35-2.84 3.3-3.88.95-1.04 1.74-1.84 2.38-2.37.64-.54 1.28-.95 1.91-1.24.64-.28 1.27-.44 1.89-.48v-1.1h-9.51v1.1c.78.02 1.36.17 1.75.46.38.29.58.72.58 1.28 0 .44-.08.87-.24 1.31-.15.43-.38.86-.69 1.29-.31.43-.64.87-.98 1.31-.34.44-.7.89-1.07 1.35h-.01l-4-5.77a.89.89 0 01-.19-.57c0-.21.08-.37.24-.48.15-.11.39-.17.7-.18v-1.1z"/><path fill="#F2CB3D" d="M178.34 162.8v5.58c0 1.39.28 2.36.85 2.91.56.54 1.49.82 2.8.84v1.1h-10.72v-1.1c1.32-.02 2.23-.31 2.77-.88.53-.57.79-1.52.79-2.87v-22.44c0-1.21-.46-1.81-1.38-1.81-.33 0-1.05.2-2.18.61v-1.11l6.02-2.45h1.05v7.64c2.22-3.06 4.03-5.1 5.43-6.13 1.39-1.03 2.81-1.55 4.23-1.55 1.87 0 3.49.79 4.84 2.37 1.35 1.58 2.03 3.69 2.03 6.31 0 3.68-1.23 6.96-3.67 9.81-2.45 2.86-5.2 4.28-8.24 4.28-.71 0-1.44-.09-2.22-.28-.78-.19-1.58-.46-2.4-.83zm.01-2.99c1.09.89 2.13 1.55 3.09 2 .97.44 1.87.66 2.71.66 1.97 0 3.65-.98 5.05-2.96 1.41-1.98 2.11-4.49 2.11-7.54 0-2.38-.46-4.32-1.37-5.83-.91-1.51-2.14-2.27-3.68-2.27-2.03 0-3.89 1.32-5.6 3.94-1.71 2.64-2.56 5.65-2.56 9.06 0 .73.09 1.71.25 2.94zm-.01 8.57v-5.58c.41.18.82.34 1.22.48a11.205 11.205 0 002.32.56c.36.05.73.07 1.08.07 1.52 0 2.97-.36 4.34-1.07 1.37-.71 2.67-1.78 3.9-3.21 1.22-1.43 2.14-2.96 2.75-4.6.61-1.63.92-3.37.92-5.21 0-1.31-.17-2.5-.51-3.55-.34-1.05-.84-1.97-1.52-2.75-.68-.8-1.42-1.39-2.23-1.79a5.91 5.91 0 00-2.61-.59c-.71 0-1.42.13-2.13.39-.7.26-1.41.65-2.1 1.16-.7.52-1.51 1.29-2.41 2.31-.91 1.02-1.91 2.3-3.02 3.82v-7.63h-1.05l-6.01 2.45v1.1c.55-.2 1.01-.36 1.37-.46.37-.1.64-.15.8-.15.46 0 .81.15 1.04.45.23.3.34.76.34 1.36v22.44c0 .67-.07 1.25-.2 1.72-.13.48-.33.87-.59 1.15-.27.28-.63.5-1.09.65-.46.14-1.02.22-1.67.23v1.1h10.71v-1.1c-.65-.01-1.21-.08-1.68-.22s-.84-.35-1.12-.62c-.29-.27-.5-.65-.64-1.14-.14-.48-.21-1.07-.21-1.77zm1.6-7.41c-.51-.33-1.05-.72-1.59-1.16-.08-.61-.15-1.17-.19-1.66-.04-.48-.06-.91-.06-1.28 0-1.7.21-3.31.64-4.82.43-1.51 1.07-2.92 1.92-4.24 1.7-2.62 3.57-3.94 5.6-3.94.77 0 1.47.19 2.08.57.61.38 1.15.95 1.6 1.7.46.75.8 1.62 1.03 2.59.23.97.34 2.05.34 3.24 0 1.53-.17 2.92-.53 4.17-.35 1.26-.87 2.38-1.57 3.37-.7.99-1.48 1.73-2.32 2.22-.84.49-1.75.74-2.74.74-.42 0-.85-.06-1.3-.17-.45-.11-.92-.27-1.41-.49-.48-.23-.99-.5-1.5-.84zM205.5 131c-.64.33-.96.89-.96 1.71v25.72c0 1.4.28 2.35.85 2.87.57.53 1.47.8 2.71.83v1.11h-10.77v-1.11c1.29-.03 2.21-.31 2.77-.85s.84-1.49.84-2.85V136.1c0-1.44-.6-2.16-1.78-2.16-.5 0-1.11.12-1.83.37v-1.1l8.17-3.17v.96zm-.72.67c.16-.28.4-.51.72-.67v-.96l-8.16 3.17v1.1c.35-.12.69-.22.99-.28.3-.06.58-.09.83-.09.59 0 1.04.18 1.33.54.3.36.45.9.45 1.62v22.33c0 .68-.07 1.26-.21 1.73-.14.48-.35.85-.63 1.12-.28.27-.65.48-1.11.62-.46.14-1.01.22-1.65.23v1.11h10.76v-1.11c-.62-.01-1.16-.09-1.61-.23-.45-.13-.82-.33-1.1-.6-.28-.26-.5-.63-.64-1.1-.14-.48-.21-1.07-.21-1.77v-25.72c0-.41.08-.76.24-1.04zm16.89 9.51c2.96 0 5.33.93 7.11 2.78 1.78 1.84 2.67 4.31 2.67 7.38 0 3.65-1.24 6.66-3.72 9.02-2.47 2.37-5.19 3.55-8.17 3.55-2.98 0-5.33-.94-7.05-2.82-1.72-1.88-2.59-4.32-2.59-7.33 0-3.6 1.23-6.59 3.68-8.98 2.45-2.39 5.14-3.6 8.07-3.6zm-1.98 1.83c-2.14 0-3.77.76-4.9 2.27-1.13 1.53-1.7 3.42-1.7 5.71 0 2.81.89 5.32 2.68 7.54 1.78 2.21 3.85 3.32 6.22 3.32 1.76 0 3.25-.73 4.46-2.18 1.22-1.46 1.83-3.36 1.83-5.71 0-2.17-.49-4.12-1.46-5.85-.98-1.73-2.09-3.01-3.35-3.84-1.25-.84-2.51-1.26-3.78-1.26zm5.98-1.13c-1.18-.46-2.52-.69-4-.69-1.46 0-2.87.3-4.21.9-1.35.59-2.63 1.49-3.86 2.69-1.22 1.2-2.14 2.54-2.76 4.04-.61 1.49-.92 3.14-.92 4.94 0 1.5.22 2.87.65 4.09.43 1.22 1.08 2.3 1.94 3.24.86.94 1.88 1.65 3.05 2.12 1.18.47 2.51.7 4 .7 1.49 0 2.91-.3 4.27-.89 1.37-.59 2.67-1.48 3.9-2.66 1.24-1.18 2.17-2.52 2.79-4.03.62-1.5.93-3.17.93-4.99 0-1.54-.22-2.92-.67-4.15a8.917 8.917 0 00-2-3.23 8.558 8.558 0 00-3.11-2.08zm-8.81 1.7c.82-.38 1.76-.57 2.83-.57.63 0 1.27.1 1.9.31.63.21 1.26.53 1.88.95.63.41 1.23.94 1.78 1.58.56.64 1.08 1.4 1.57 2.26.49.87.85 1.79 1.09 2.76.25.97.37 2.01.37 3.09 0 1.18-.15 2.24-.46 3.19-.3.95-.76 1.79-1.37 2.52-.6.72-1.28 1.27-2.02 1.63-.75.36-1.56.55-2.44.55-1.18 0-2.29-.28-3.33-.83-1.04-.55-2-1.39-2.89-2.49-.89-1.11-1.56-2.29-2.01-3.55a12.02 12.02 0 01-.67-3.99c0-1.14.15-2.19.43-3.14.28-.95.71-1.81 1.27-2.57.56-.75 1.26-1.32 2.07-1.7zm32.23-2.4c.52 0 1.13.12 1.85.36v7.19h-1.68c-.02-2.82-.83-4.23-2.45-4.23-1.59 0-3.03 1.31-4.28 3.95-1.25 2.63-1.87 5.62-1.87 8.95 0 1.96.36 3.25 1.09 3.85.72.59 2.1.88 4.15.88v1.11h-12.21v-1.11c1.28-.03 2.21-.31 2.77-.84s.84-1.48.84-2.86v-12.1c0-1.41-.51-2.11-1.53-2.11-.42 0-1.11.18-2.08.52v-1.11l6.18-2.49h1.03v7.59c1.61-2.74 3.04-4.69 4.31-5.83 1.26-1.15 2.55-1.72 3.88-1.72zm-9.22-.04l-6.18 2.5v1.1c.49-.17.9-.3 1.25-.39.34-.09.62-.13.83-.13.51 0 .9.18 1.15.53.25.35.38.88.38 1.58v12.1c0 .69-.07 1.28-.21 1.75-.14.48-.35.85-.63 1.11-.28.27-.65.47-1.12.61-.45.14-1.01.22-1.65.23v1.11h12.21v-1.11c-1.03 0-1.88-.07-2.57-.22s-1.22-.37-1.58-.66c-.37-.3-.64-.77-.82-1.41-.18-.64-.27-1.46-.27-2.44 0-1.66.16-3.25.47-4.74.31-1.49.78-2.9 1.4-4.21.63-1.32 1.3-2.31 2.01-2.96.71-.66 1.47-.99 2.27-.99.81 0 1.42.35 1.83 1.06.4.7.61 1.76.62 3.17h1.68v-7.19c-.36-.12-.69-.21-1-.26-.31-.06-.59-.09-.85-.09-.66 0-1.32.14-1.96.42-.65.29-1.29.72-1.92 1.29-.63.57-1.31 1.35-2.03 2.32-.71.97-1.47 2.14-2.28 3.51v-7.59h-1.03zm32.27 16.19c-3.48 4.39-6.88 6.58-10.19 6.58-2.33 0-4.38-1.01-6.16-3.03-1.79-2.02-2.68-4.42-2.68-7.19 0-3.21 1.06-6.09 3.17-8.65 2.12-2.57 4.62-3.86 7.48-3.86 2.32 0 4.14.81 5.51 2.44 1.36 1.62 2.07 3.59 2.15 5.93h-15.09c0 .09-.01.18-.01.27l.01-.27v-.01h15.09c-.04-1.16-.24-2.24-.6-3.23-.35-.98-.87-1.88-1.56-2.69-.68-.81-1.47-1.42-2.39-1.83-.91-.4-1.95-.6-3.11-.6-1.43 0-2.77.32-4.02.96-1.25.64-2.4 1.6-3.46 2.89-2.11 2.56-3.17 5.44-3.17 8.65 0 1.39.23 2.68.67 3.88.45 1.19 1.12 2.3 2.01 3.31.89 1.01 1.85 1.77 2.87 2.27 1.02.51 2.12.76 3.29.76 1.65 0 3.33-.55 5.03-1.64 1.7-1.1 3.42-2.75 5.16-4.94v-1.54c-1.4 1.62-2.78 2.83-4.15 3.64-1.37.81-2.73 1.22-4.07 1.22-1.08 0-2.07-.24-2.98-.7-.9-.47-1.72-1.17-2.45-2.1a9.757 9.757 0 01-1.66-3.14c-.36-1.15-.55-2.43-.55-3.82v-.07.07c0 2.78.74 5.1 2.21 6.96 1.46 1.87 3.27 2.79 5.43 2.79 2.69 0 5.43-1.61 8.22-4.85v1.54zm-15.83-7.26c-.01.14-.01.28-.02.4v-.13l.02-.27zm11.27-1.63c-.19-1.83-.77-3.24-1.76-4.25-.98-1.01-2.14-1.52-3.48-1.52-1.4 0-2.66.55-3.77 1.65-1.1 1.08-1.78 2.46-2.03 4.12h11.04zm-1.76-4.25c.99 1 1.57 2.42 1.76 4.25h-11.04c.12-.83.36-1.59.69-2.27.34-.69.79-1.31 1.34-1.86.55-.54 1.15-.95 1.77-1.23.63-.27 1.3-.41 2-.41.67 0 1.29.13 1.87.38.58.25 1.12.63 1.61 1.14zm23.91-3.01c.51 0 1.13.12 1.85.36v7.19h-1.69c-.01-2.82-.83-4.23-2.45-4.23-1.59 0-3.02 1.31-4.27 3.95-1.25 2.63-1.88 5.62-1.88 8.95 0 1.96.36 3.25 1.09 3.85.72.59 2.11.88 4.15.88v1.11h-12.2v-1.11c1.28-.03 2.2-.31 2.76-.84.56-.53.84-1.48.84-2.86v-12.1c0-1.41-.5-2.11-1.52-2.11-.43 0-1.12.18-2.08.52v-1.11l6.17-2.49h1.03v7.59c1.61-2.74 3.05-4.69 4.31-5.83 1.27-1.15 2.56-1.72 3.89-1.72zm-9.23-.04l-6.17 2.5v1.1c.48-.17.9-.3 1.24-.39.35-.09.63-.13.84-.13.51 0 .89.18 1.14.53.25.35.38.88.38 1.58v12.1c0 .69-.07 1.28-.21 1.75-.14.48-.35.85-.63 1.11-.28.27-.65.47-1.11.61-.46.14-1.01.22-1.65.23v1.11h12.2v-1.11c-1.02 0-1.88-.07-2.57-.22s-1.22-.37-1.58-.66c-.36-.3-.64-.77-.81-1.41-.19-.64-.28-1.46-.28-2.44 0-1.66.16-3.25.47-4.74.31-1.49.78-2.9 1.41-4.21.62-1.32 1.29-2.31 2-2.96.71-.66 1.48-.99 2.27-.99.81 0 1.42.35 1.83 1.06.41.7.62 1.76.63 3.17h1.68v-7.19c-.36-.12-.7-.21-1.01-.26-.3-.06-.59-.09-.84-.09-.67 0-1.32.14-1.97.42-.64.29-1.28.72-1.92 1.29-.63.57-1.31 1.35-2.02 2.32-.72.97-1.48 2.14-2.29 3.51v-7.59h-1.03z"/><path fill-rule="nonzero" d="M110.89 79.68h9.4l12.28 30.36 7.02-16.66c2.65-6.28 4.41-10.85 5.25-13.7h10.23v1.35c-1.66.04-2.82.32-3.47.85-.66.52-.99 1.47-.99 2.86 0 .19.01.41.03.65l2.2 22.92c.27 2.83.72 4.64 1.33 5.45.63.81 1.88 1.24 3.78 1.3v1.35h-14.13v-1.35c1.44-.04 2.45-.33 3.05-.86.58-.54.88-1.59.88-3.15 0-.31-.01-.63-.05-.99l-2.23-22.88c-3.29 5.86-5.64 10.43-7.03 13.7l-7.17 16.88h-1.3l-13.44-33.43-.98 10.34c-.44 4.66-.67 8.35-.67 11.06 0 6.05 1.52 9.15 4.55 9.33v1.35h-12.95v-1.35c1.33-.31 2.39-1.17 3.17-2.58.78-1.41 1.6-3.92 2.43-7.53.83-3.61 1.44-7.47 1.82-11.57l.72-7.64c.02-.37.03-.77.03-1.19 0-1.36-.27-2.28-.8-2.75-.54-.47-1.53-.73-2.96-.77v-1.35zm71.94 29.5c-4.26 5.37-8.42 8.05-12.47 8.05-2.85 0-5.36-1.23-7.53-3.71-2.18-2.47-3.27-5.4-3.27-8.79 0-3.92 1.29-7.45 3.88-10.58 2.58-3.15 5.64-4.71 9.14-4.71 2.83 0 5.07.99 6.73 2.97 1.67 1.98 2.54 4.4 2.64 7.25H163.5c-.04.75-.06 1.29-.06 1.65 0 3.4.9 6.24 2.69 8.51 1.79 2.28 4.01 3.42 6.64 3.42 3.29 0 6.64-1.98 10.06-5.94v1.88zm-5.58-10.87c-.23-2.23-.94-3.97-2.15-5.2-1.2-1.23-2.62-1.85-4.26-1.85-1.71 0-3.25.66-4.6 2.01-1.35 1.33-2.19 3.01-2.49 5.04h13.5zm11.19-4.64c4.41-2.9 8.56-4.35 12.45-4.35 1.82 0 3.13.4 3.94 1.21.81.8 1.2 2.16 1.18 4.07v17.93c0 .86.39 1.29 1.17 1.29.75 0 2.09-.88 4-2.64v1.76c-2.91 2.86-5.28 4.29-7.11 4.29-1.65 0-2.47-.91-2.47-2.74v-4.23c-2.39 2.44-4.41 4.21-6.06 5.32-1.65 1.1-3.21 1.65-4.68 1.65-1.43 0-2.66-.56-3.66-1.67-1.01-1.12-1.52-2.48-1.52-4.09 0-4.14 5.31-8.61 15.92-13.39v-3.46c0-1.06-.31-1.93-.94-2.62-.63-.69-1.5-1.03-2.61-1.03-1.88 0-3.57.91-5.04 2.74-1.47 1.83-2.35 4.11-2.63 6.83h-1.94v-6.87zm13.46 6.76c-3.53.72-6.39 1.96-8.58 3.73-2.2 1.76-3.29 3.57-3.29 5.42 0 1.18.36 2.13 1.09 2.83.74.71 1.7 1.06 2.88 1.06 2.2 0 4.05-1.15 5.57-3.48 1.51-2.31 2.29-5.5 2.33-9.56zm21.37-23.45c-.78.4-1.17 1.1-1.17 2.1v31.45c0 1.71.34 2.87 1.04 3.51.69.65 1.79.98 3.31 1.02v1.35h-13.16v-1.35c1.56-.04 2.69-.38 3.37-1.05.69-.66 1.03-1.81 1.03-3.48V83.22c0-1.76-.72-2.65-2.17-2.65-.61 0-1.35.16-2.23.46v-1.35l9.98-3.88v1.18z"/><path d="M110.89 79.68h9.4l12.28 30.36-12.28-30.36h-9.4v1.35c.71.02 1.32.1 1.82.22.49.13.88.31 1.14.55.53.47.8 1.39.8 2.75 0-1.36-.27-2.28-.8-2.75-.54-.47-1.53-.73-2.96-.77v-1.35zm21.68 30.36l7.02-16.66c2.65-6.28 4.41-10.85 5.25-13.7h10.23v1.35c-1.66.04-2.82.32-3.47.85-.66.52-.99 1.47-.99 2.86v.05-.05c0-.7.08-1.28.24-1.76.17-.47.42-.85.75-1.1.32-.27.78-.47 1.36-.61.58-.14 1.28-.22 2.11-.24v-1.35h-10.23c-.42 1.43-1.07 3.28-1.95 5.57-.87 2.28-1.97 4.99-3.3 8.13l-7.02 16.66zm18.04-25.03c0 .03.01.05.01.08l-.01-.04v-.04zm.02.29c0 .03 0 .06.01.09l2.2 22.92c.27 2.83.72 4.64 1.33 5.45.63.81 1.88 1.24 3.78 1.3v1.35h-14.13v-1.35c1.44-.04 2.45-.33 3.05-.86.58-.54.88-1.59.88-3.15v-.07.07c0 .78-.08 1.43-.22 1.96-.15.52-.37.92-.66 1.19-.3.27-.7.47-1.21.62-.51.14-1.12.22-1.84.24v1.35h14.13v-1.35c-.95-.03-1.74-.15-2.36-.37-.64-.21-1.11-.52-1.42-.92-.31-.41-.58-1.07-.8-1.99-.22-.9-.4-2.06-.53-3.47l-2.2-22.92-.01-.09zm-2.89 25.34c-.01-.19-.02-.38-.04-.58l-2.23-22.88 2.23 22.88c.02.18.03.35.04.51v.07zm-2.27-23.46c-3.29 5.86-5.64 10.43-7.03 13.7l-7.17 16.88h-1.3l-13.44-33.43 13.44 33.43h1.29l7.18-16.88c.7-1.64 1.63-3.6 2.8-5.88s2.58-4.89 4.22-7.82h.01zm-28.94-2.85l-.98 10.34c-.44 4.66-.67 8.35-.67 11.06 0 6.05 1.52 9.15 4.55 9.33v1.35h-12.95v-1.35c1.33-.31 2.39-1.17 3.17-2.58.78-1.41 1.6-3.92 2.43-7.53.83-3.61 1.44-7.47 1.82-11.57l.72-7.64v-.12.12l-.72 7.64c-.38 4.1-.99 7.96-1.82 11.57-.41 1.8-.83 3.33-1.23 4.58-.4 1.26-.81 2.25-1.2 2.95-.39.71-.85 1.28-1.38 1.71-.53.43-1.13.72-1.79.87v1.35h12.95v-1.35c-3.03-.18-4.55-3.28-4.55-9.33 0-1.35.06-2.95.17-4.8.11-1.84.27-3.93.49-6.26l.98-10.34h.01zm-1.9.97c.01-.1.01-.2.01-.3v.16l-.01.14zm68.2 23.88c-4.26 5.37-8.42 8.05-12.47 8.05-2.85 0-5.36-1.23-7.53-3.71-2.18-2.47-3.27-5.4-3.27-8.79 0-3.92 1.29-7.45 3.88-10.58 2.58-3.15 5.64-4.71 9.14-4.71 2.83 0 5.07.99 6.73 2.97 1.67 1.98 2.54 4.4 2.64 7.25H163.5c-.01.07-.01.13-.01.19v-.19h18.46c-.05-1.42-.3-2.74-.73-3.95-.44-1.2-1.08-2.31-1.91-3.29-.83-1-1.81-1.74-2.93-2.24-1.11-.49-2.38-.74-3.8-.74-1.75 0-3.39.39-4.92 1.18-1.52.78-2.93 1.96-4.22 3.53-1.29 1.56-2.27 3.23-2.91 4.99-.65 1.76-.97 3.63-.97 5.59 0 1.7.27 3.28.82 4.74.54 1.47 1.36 2.81 2.45 4.05 1.09 1.24 2.26 2.17 3.51 2.78 1.26.62 2.6.93 4.02.93 2.03 0 4.08-.67 6.16-2.01 2.07-1.34 4.18-3.36 6.31-6.04v-1.87c-1.71 1.97-3.4 3.46-5.08 4.44-1.67.99-3.33 1.49-4.98 1.49-1.32 0-2.53-.29-3.64-.86-1.1-.57-2.11-1.42-3-2.56-.9-1.13-1.57-2.42-2.02-3.84-.45-1.41-.67-2.97-.67-4.67 0-.18 0-.41.01-.68l.01-.09c-.02.32-.02.57-.02.77 0 3.4.9 6.24 2.69 8.51 1.79 2.28 4.01 3.42 6.64 3.42 3.29 0 6.64-1.98 10.06-5.94v1.88zm-5.58-10.87c-.23-2.23-.94-3.97-2.15-5.2-1.2-1.23-2.62-1.85-4.26-1.85-1.71 0-3.25.66-4.6 2.01-1.35 1.33-2.19 3.01-2.49 5.04h13.5zm-.71-2.97c.36.86.6 1.85.71 2.97h-13.5c.15-1.01.44-1.94.85-2.78.41-.84.96-1.6 1.64-2.26.67-.67 1.39-1.18 2.16-1.51.77-.33 1.58-.5 2.44-.5.82 0 1.58.15 2.29.46.71.31 1.37.77 1.97 1.39.6.61 1.08 1.36 1.44 2.23zm11.9-1.67c4.41-2.9 8.56-4.35 12.45-4.35 1.82 0 3.13.4 3.94 1.21.81.8 1.2 2.16 1.18 4.07v17.93c0 .86.39 1.29 1.17 1.29.75 0 2.09-.88 4-2.64v1.76c-2.91 2.86-5.28 4.29-7.11 4.29-1.65 0-2.47-.91-2.47-2.74v-4.23 4.23c0 .91.21 1.6.62 2.06.41.45 1.03.68 1.85.68.92 0 1.97-.36 3.15-1.07 1.18-.71 2.51-1.79 3.96-3.22v-1.76c-.95.88-1.76 1.54-2.43 1.98-.67.44-1.2.66-1.57.66-.39 0-.69-.1-.88-.32-.19-.21-.29-.54-.29-.97V94.6c.01-.96-.09-1.78-.28-2.45-.2-.68-.5-1.22-.9-1.62-.81-.81-2.12-1.21-3.94-1.21-1.95 0-3.96.37-6.03 1.09-2.08.72-4.22 1.81-6.42 3.26v6.87h1.94c.14-1.36.43-2.61.87-3.75a11.53 11.53 0 011.76-3.08c.73-.91 1.52-1.6 2.36-2.06.84-.46 1.74-.69 2.68-.69.56 0 1.05.09 1.48.26.44.18.82.44 1.13.78.32.34.55.73.71 1.17.15.44.23.92.23 1.45v3.46c-5.3 2.39-9.29 4.71-11.94 6.94-2.65 2.23-3.98 4.38-3.98 6.45 0 .81.13 1.55.38 2.23.25.68.63 1.3 1.14 1.86.5.55 1.06.97 1.67 1.25.61.28 1.27.42 1.99.42.74 0 1.5-.14 2.28-.41.78-.28 1.58-.69 2.4-1.24.83-.56 1.75-1.28 2.75-2.16 1.01-.89 2.12-1.94 3.31-3.16-2.39 2.44-4.41 4.21-6.06 5.32-1.65 1.1-3.21 1.65-4.68 1.65-1.43 0-2.66-.56-3.66-1.67-1.01-1.12-1.52-2.48-1.52-4.09 0-4.14 5.31-8.61 15.92-13.39v-3.46c0-1.06-.31-1.93-.94-2.62-.63-.69-1.5-1.03-2.61-1.03-1.88 0-3.57.91-5.04 2.74-1.47 1.83-2.35 4.11-2.63 6.83h-1.94v-6.87zm13.46 6.76c-3.53.72-6.39 1.96-8.58 3.73-2.2 1.76-3.29 3.57-3.29 5.42 0 1.18.36 2.13 1.09 2.83.74.71 1.7 1.06 2.88 1.06 2.2 0 4.05-1.15 5.57-3.48 1.51-2.31 2.29-5.5 2.33-9.56zm-8.58 3.73c2.19-1.77 5.05-3.01 8.58-3.73-.02 2.03-.23 3.84-.61 5.44-.39 1.59-.97 2.97-1.72 4.13-.76 1.16-1.61 2.03-2.53 2.6-.93.58-1.94.87-3.04.87-.59 0-1.13-.09-1.61-.26-.48-.18-.9-.45-1.27-.8-.36-.34-.64-.76-.82-1.23-.18-.47-.27-1.01-.27-1.6 0-.92.27-1.84.82-2.75.55-.9 1.37-1.79 2.47-2.67zm29.95-27.18c-.78.4-1.17 1.1-1.17 2.1v31.45c0 1.71.34 2.87 1.04 3.51.69.65 1.79.98 3.31 1.02v1.35h-13.16v-1.35c1.56-.04 2.69-.38 3.37-1.05.69-.66 1.03-1.81 1.03-3.48V83.22c0-1.76-.72-2.65-2.17-2.65-.61 0-1.35.16-2.23.46v-1.35l9.98-3.88v1.18zm-.88.82c.2-.34.49-.62.88-.82v-1.17l-9.98 3.87v1.35c.44-.15.84-.26 1.22-.34.37-.08.71-.12 1.01-.12.72 0 1.27.22 1.63.66.36.44.54 1.11.54 1.99v27.31c0 .84-.08 1.54-.25 2.12-.17.58-.43 1.04-.77 1.36-.35.33-.8.59-1.36.76-.57.17-1.24.27-2.02.29v1.35h13.16v-1.35c-.76-.02-1.42-.11-1.96-.28-.56-.17-1.01-.42-1.35-.74-.35-.32-.61-.77-.78-1.35-.17-.59-.26-1.3-.26-2.16V79.08c0-.5.1-.93.29-1.28z"/><path fill="#F2CB3D" d="M62.83 49.2c30.08 15.85 15.95-42.38-9.14-15.36-17.95 19.31 20.25 19.85-4.05 65.61 19.25-46.3-27.15-54.84 3.43-72.82C88.49 5.8 91.35 67.86 62.83 49.2z"/><path fill="#F2CB3D" d="M29.06 78.48c11.22 23.12 17.77-22.29-4.82-10.86-22.21 11.24 15.11 16.64-8.63 53.52 4.81-13.41 7.48-18.43.32-30.32-9.37-15.55-2.07-30.65 12.53-30.68 34.43-.08 6.72 45.26.6 18.34zM249.6 60.91c-36.49 19.23-19.35-51.39 11.08-18.63 21.77 23.42-24.56 24.07 4.91 79.58-23.34-56.16 32.93-66.52-4.16-88.32-42.96-25.26-46.43 50-11.83 27.37z"/></svg>